<svg width="100" height="40" viewBox="0 0 100 40" fill="none" xmlns="http://www.w3.org/2000/svg">
<path fill-rule="evenodd" clip-rule="evenodd" d="M90.8616 14.7118C85.5341 14.7118 78.0647 17.7011 78.0648 23.9099C78.0648 24.1997 78.0906 24.4837 78.1407 24.761C76.0631 24.2451 74.2829 22.9171 73.1023 20.9605C70.1468 16.0629 72.9054 6.11144 81.7661 6.11144C90.6267 6.11144 92.2595 1.85195 92.2595 1.85195C92.2595 1.85195 93.2577 8.57869 91.7602 14.5651C91.4743 14.6609 91.175 14.7118 90.8616 14.7118ZM91.7602 14.5651C96.3353 13.0322 97.4689 0 97.4689 0C97.4689 0 103.604 22.4086 96.7708 28.0108C90.2569 33.3514 79.1624 30.425 78.1407 24.761C81.2636 25.5366 85.0582 24.4775 88.4979 20.9605C90.1449 19.2765 91.1558 16.9811 91.7602 14.5651Z" fill="#5C11F9"/>
<path d="M49.3892 36.2029C48.5192 36.2029 47.6747 36.0622 46.8558 35.781C46.037 35.4997 45.3717 35.1246 44.8599 34.6559L45.8579 31.7226C46.3389 32.1378 46.8968 32.4726 47.5314 32.7271C48.166 32.9816 48.7904 33.1089 49.4046 33.1089C50.5714 33.1089 51.1549 32.7271 51.1549 31.9637C51.1549 31.5619 50.986 31.2672 50.6482 31.0797C50.3207 30.8788 49.7884 30.6712 49.0514 30.4569C48.2428 30.2292 47.5672 29.9881 47.0247 29.7336C46.4822 29.4657 46.0165 29.0438 45.6276 28.4679C45.2386 27.8919 45.0441 27.1151 45.0441 26.1373C45.0441 25.2801 45.2232 24.5099 45.5815 23.8268C45.9397 23.1304 46.472 22.5812 47.1783 22.1794C47.8948 21.7776 48.7699 21.5767 49.8038 21.5767C50.51 21.5767 51.2061 21.6838 51.8919 21.8981C52.5777 22.099 53.1816 22.4004 53.7036 22.8022L52.767 25.7556C51.7434 25.0323 50.7506 24.6707 49.7884 24.6707C49.1845 24.6707 48.7443 24.7912 48.468 25.0323C48.1916 25.26 48.0534 25.5614 48.0534 25.9364C48.0534 26.3114 48.2172 26.5927 48.5448 26.7802C48.8723 26.9677 49.3994 27.1619 50.1262 27.3628C50.945 27.5905 51.6206 27.8383 52.1529 28.1062C52.6954 28.3607 53.1611 28.7759 53.5501 29.3519C53.9493 29.9144 54.1489 30.6845 54.1489 31.6623C54.1489 32.5061 53.9697 33.2696 53.6115 33.9527C53.2532 34.6358 52.7158 35.1849 51.9993 35.6001C51.2828 36.0019 50.4128 36.2029 49.3892 36.2029Z" fill="#5C11F9"/>
<path d="M60.7734 35.4796C60.5277 35.6805 60.2258 35.8345 59.8675 35.9417C59.5195 36.0488 59.1459 36.1024 58.7467 36.1024C57.6617 36.1024 56.8275 35.7542 56.244 35.0577C55.6708 34.3612 55.3842 33.3232 55.3842 31.9436V22.6013H58.3014V25.4341H60.1899V28.287H58.3014V31.9034C58.3014 32.3052 58.3782 32.6133 58.5317 32.8276C58.6853 33.0419 58.8951 33.149 59.1612 33.149C59.499 33.149 59.7959 33.0352 60.0518 32.8075L60.7734 35.4796Z" fill="#5C11F9"/>
<path d="M70.4501 25.0323V35.9216H67.671V34.8367C67.1285 35.6805 66.3097 36.1024 65.2144 36.1024C64.457 36.1024 63.7661 35.8747 63.1417 35.4193C62.5275 34.9505 62.0362 34.2875 61.6677 33.4303C61.3095 32.5731 61.1304 31.5819 61.1304 30.4569C61.1304 29.3318 61.3095 28.3473 61.6677 27.5035C62.0362 26.6463 62.5275 25.99 63.1417 25.5346C63.7661 25.0792 64.457 24.8515 65.2144 24.8515C66.1971 24.8515 66.9699 25.2265 67.5328 25.9766V25.0323H70.4501ZM65.8286 33.0687C66.3404 33.0687 66.76 32.841 67.0876 32.3856C67.4151 31.9168 67.5789 31.2739 67.5789 30.4569C67.5789 29.6532 67.4151 29.0237 67.0876 28.5683C66.76 28.1129 66.3404 27.8852 65.8286 27.8852C65.3168 27.8852 64.8971 28.1129 64.5696 28.5683C64.242 29.0237 64.0783 29.6532 64.0783 30.4569C64.0783 31.2739 64.242 31.9168 64.5696 32.3856C64.8971 32.841 65.3168 33.0687 65.8286 33.0687Z" fill="#5C11F9"/>
<path d="M75.107 26.3382C75.4039 25.8426 75.7877 25.4743 76.2586 25.2332C76.7396 24.9787 77.2872 24.8515 77.9014 24.8515V28.287C77.6353 28.2469 77.4152 28.2268 77.2412 28.2268C76.6168 28.2268 76.1255 28.4478 75.7672 28.8898C75.4192 29.3318 75.2452 30.0082 75.2452 30.9189V35.9216H72.328V25.0323H75.107V26.3382Z" fill="#5C11F9"/>
<path d="M5.91118 36.2029C4.78524 36.2029 3.77189 35.8948 2.87114 35.2787C1.98063 34.6492 1.27948 33.7786 0.767686 32.6669C0.255895 31.5552 0 30.2961 0 28.8898C0 27.4834 0.255895 26.2244 0.767686 25.1127C1.27948 24.001 1.98063 23.1371 2.87114 22.5209C3.77189 21.8914 4.78524 21.5767 5.91118 21.5767C6.89382 21.5767 7.77921 21.8044 8.56737 22.2598C9.35553 22.7151 10.0106 23.3715 10.5326 24.2287L8.59808 26.519C7.90204 25.4207 7.05759 24.8716 6.06471 24.8716C5.48127 24.8716 4.95925 25.039 4.49864 25.3738C4.04826 25.7087 3.69513 26.1842 3.43923 26.8003C3.19357 27.403 3.07074 28.0995 3.07074 28.8898C3.07074 29.68 3.19357 30.3832 3.43923 30.9993C3.69513 31.602 4.04826 32.0708 4.49864 32.4057C4.95925 32.7405 5.48127 32.9079 6.06471 32.9079C7.05759 32.9079 7.90204 32.3588 8.59808 31.2605L10.5326 33.5509C10.0106 34.4081 9.35553 35.0644 8.56737 35.5198C7.77921 35.9752 6.89382 36.2029 5.91118 36.2029Z" fill="url(#paint0_linear_23_117)"/>
<path d="M15.6712 36.1024C14.7807 36.1024 13.9772 35.8613 13.2607 35.3791C12.5442 34.8969 11.9812 34.2273 11.5718 33.37C11.1726 32.5128 10.973 31.5418 10.973 30.4569C10.973 29.3853 11.1726 28.421 11.5718 27.5638C11.9812 26.7065 12.5391 26.0435 13.2453 25.5748C13.9618 25.0926 14.7705 24.8515 15.6712 24.8515C16.572 24.8515 17.3806 25.0926 18.0971 25.5748C18.8136 26.0435 19.3715 26.7065 19.7707 27.5638C20.1699 28.4076 20.3695 29.3719 20.3695 30.4569C20.3695 31.5418 20.1699 32.5128 19.7707 33.37C19.3715 34.2273 18.8136 34.8969 18.0971 35.3791C17.3806 35.8613 16.572 36.1024 15.6712 36.1024ZM15.6712 33.0687C16.183 33.0687 16.6027 32.841 16.9302 32.3856C17.2578 31.9168 17.4215 31.2739 17.4215 30.4569C17.4215 29.6532 17.2578 29.0237 16.9302 28.5683C16.6027 28.1129 16.183 27.8852 15.6712 27.8852C15.1594 27.8852 14.7398 28.1129 14.4122 28.5683C14.0847 29.0237 13.9209 29.6532 13.9209 30.4569C13.9209 31.2739 14.0847 31.9168 14.4122 32.3856C14.7398 32.841 15.1594 33.0687 15.6712 33.0687Z" fill="url(#paint1_linear_23_117)"/>
<path d="M26.9564 24.8515C27.7139 24.8515 28.3997 25.0859 29.0138 25.5547C29.6382 26.0101 30.1295 26.6664 30.4878 27.5236C30.8563 28.3674 31.0405 29.3519 31.0405 30.4769C31.0405 31.602 30.8563 32.5932 30.4878 33.4504C30.1295 34.2942 29.6382 34.9505 29.0138 35.4193C28.3997 35.8747 27.7139 36.1024 26.9564 36.1024C25.984 36.1024 25.2112 35.7207 24.638 34.9572V39.8192H21.7208V25.0323H24.4998V26.1172C25.0423 25.2734 25.8612 24.8515 26.9564 24.8515ZM26.3423 33.0687C26.8541 33.0687 27.2737 32.841 27.6013 32.3856C27.9288 31.9168 28.0926 31.2806 28.0926 30.4769C28.0926 29.6733 27.9288 29.0438 27.6013 28.5884C27.2737 28.1196 26.8541 27.8852 26.3423 27.8852C25.8305 27.8852 25.4108 28.1196 25.0833 28.5884C24.7557 29.0438 24.592 29.6733 24.592 30.4769C24.592 31.2806 24.7557 31.9168 25.0833 32.3856C25.4108 32.841 25.8305 33.0687 26.3423 33.0687Z" fill="url(#paint2_linear_23_117)"/>
<path d="M41.1481 25.0323V33.9326C41.1481 35.9551 40.7335 37.4686 39.9044 38.4731C39.0855 39.4911 37.9033 40 36.3577 40C35.5491 40 34.7916 39.8795 34.0854 39.6384C33.3893 39.3973 32.7956 39.0424 32.3043 38.5736L33.3637 35.9015C33.6913 36.2631 34.1007 36.5444 34.592 36.7453C35.0936 36.9596 35.59 37.0668 36.0813 37.0668C36.8183 37.0668 37.3608 36.8458 37.7088 36.4038C38.0568 35.9618 38.2309 35.3055 38.2309 34.4349V34.1938C37.6065 34.9706 36.8285 35.359 35.8971 35.359C34.8223 35.359 33.9625 34.9438 33.3177 34.1134C32.683 33.283 32.3657 32.0373 32.3657 30.3765V25.0323H35.2829V29.7537C35.2829 30.5841 35.4007 31.1868 35.6361 31.5619C35.8715 31.9369 36.2144 32.1244 36.6648 32.1244C37.1254 32.1244 37.499 31.9101 37.7856 31.4815C38.0824 31.0529 38.2309 30.41 38.2309 29.5528V25.0323H41.1481Z" fill="url(#paint3_linear_23_117)"/>
<defs>
<linearGradient id="paint0_linear_23_117" x1="2.29023e-07" y1="30.1742" x2="79.8957" y2="31.6403" gradientUnits="userSpaceOnUse">
<stop stop-color="#BC10D8"/>
<stop offset="1" stop-color="#5C11F9"/>
</linearGradient>
<linearGradient id="paint1_linear_23_117" x1="2.29023e-07" y1="30.1742" x2="79.8957" y2="31.6403" gradientUnits="userSpaceOnUse">
<stop stop-color="#BC10D8"/>
<stop offset="1" stop-color="#5C11F9"/>
</linearGradient>
<linearGradient id="paint2_linear_23_117" x1="2.29023e-07" y1="30.1742" x2="79.8957" y2="31.6403" gradientUnits="userSpaceOnUse">
<stop stop-color="#BC10D8"/>
<stop offset="1" stop-color="#5C11F9"/>
</linearGradient>
<linearGradient id="paint3_linear_23_117" x1="2.29023e-07" y1="30.1742" x2="79.8957" y2="31.6403" gradientUnits="userSpaceOnUse">
<stop stop-color="#BC10D8"/>
<stop offset="1" stop-color="#5C11F9"/>
</linearGradient>
</defs>
</svg>
